<?xml version="1.0" encoding="UTF-8"?>
<svg width="400px" height="400px" viewBox="0 0 400 400" version="1.1" xmlns="http://www.w3.org/2000/svg" xmlns:xlink="http://www.w3.org/1999/xlink">
    <title>Icon/ArrowDown</title>
    <g id="Icon/ArrowDown" stroke="none" stroke-width="1" fill="none" fill-rule="evenodd">
        <path d="M373.208152,170.070305 L393.542478,189.889521 C402.152507,198.281442 402.152507,211.851356 393.542478,220.154001 L215.57133,393.70606 C206.961301,402.09798 193.038699,402.09798 184.520266,393.70606 L6.45752233,220.154001 C-2.15250744,211.76208 -2.15250744,198.192166 6.45752233,189.889521 L26.791848,170.070305 C35.4934738,161.589108 49.6908633,161.76766 58.209297,170.427408 L163.361575,278.004687 L163.361575,21.4261801 C163.361575,9.5525053 173.162354,0 185.34463,0 L214.65537,0 C226.837646,0 236.638425,9.5525053 236.638425,21.4261801 L236.638425,278.004687 L341.790703,170.427408 C350.309137,161.678384 364.506526,161.499833 373.208152,170.070305 Z" id="Icon/DownArrow" fill="#FFFFFF" fill-rule="nonzero"></path>
    </g>
</svg>