<?xml version="1.0" encoding="UTF-8"?>
<svg width="400px" height="400px" viewBox="0 0 400 400" version="1.1" xmlns="http://www.w3.org/2000/svg" xmlns:xlink="http://www.w3.org/1999/xlink">
    <title>Icon/Meals</title>
    <g id="Icon/Meals" stroke="none" stroke-width="1" fill="none" fill-rule="evenodd">
        <path d="M236,115.001186 C250.359403,115.001186 262,135.148373 262,160.001186 C262,179.452569 254.869417,196.021464 244.885619,202.304734 L247.542871,272.009897 C247.785895,278.384848 242.814986,283.749778 236.440034,283.992802 C236.293423,283.998391 236.146718,284.001186 236,284.001186 C229.714538,284.001186 224.619164,278.905812 224.619164,272.62035 C224.619164,272.419463 224.624483,272.218611 224.635115,272.018005 L228.293323,202.991471 C217.696681,197.307381 210,180.209948 210,160.001186 C210,135.148373 221.640597,115.001186 236,115.001186 Z M173.100259,115 C173.050951,115.242608 173.019209,115.491599 173.00642,115.745585 L173,116.001186 L173,178.001186 C173,180.76261 175.238576,183.001186 178,183.001186 C180.688755,183.001186 182.881818,180.87888 182.99538,178.218076 L183,178.001186 L183,116.001186 C183,115.658301 182.965485,115.323478 182.899741,115 L186,115.001186 C190.418278,115.001186 194,118.582908 194,123.001186 L194,200.001186 C194,204.419464 190.418278,208.001186 186,208.001186 L175.102,208.000282 L177.542871,272.009897 C177.785895,278.384848 172.814986,283.749778 166.440034,283.992802 C166.293423,283.998391 166.146718,284.001186 166,284.001186 C159.714538,284.001186 154.619164,278.905812 154.619164,272.62035 C154.619164,272.419463 154.624483,272.218611 154.635115,272.018005 L158.028,208.000282 L147,208.001186 C142.581722,208.001186 139,204.419464 139,200.001186 L139,123.001186 C139,118.582908 142.581722,115.001186 147,115.001186 L151.100259,115 C151.050951,115.242608 151.019209,115.491599 151.00642,115.745585 L151,116.001186 L151,178.001186 C151,180.76261 153.238576,183.001186 156,183.001186 C158.688755,183.001186 160.881818,180.87888 160.99538,178.218076 L161,178.001186 L161,116.001186 C161,115.658301 160.965485,115.323478 160.899741,115 L173.100259,115 Z" id="Icon" fill="#373C3F" fill-rule="nonzero"></path>
    </g>
</svg>