<?xml version="1.0" encoding="UTF-8"?>
<svg width="400px" height="400px" viewBox="0 0 400 400" version="1.1" xmlns="http://www.w3.org/2000/svg" xmlns:xlink="http://www.w3.org/1999/xlink">
    <title>Icon/Time</title>
    <g id="Icon/Time" stroke="none" stroke-width="1" fill="none" fill-rule="evenodd">
        <path d="M200,110 C249.705627,110 290,150.294373 290,200 C290,249.705627 249.705627,290 200,290 C150.294373,290 110,249.705627 110,200 C110,150.294373 150.294373,110 200,110 Z M197.5,143 L196.5,143 C194.014719,143 192,145.014719 192,147.5 L192,147.5 L192,206.5 C192,208.475451 193.272905,210.1536 195.043247,210.758978 L244.854848,240.688121 C246.98515,241.968136 249.749757,241.278841 251.029772,239.148539 L251.029772,239.148539 L251.54481,238.291372 C252.824824,236.16107 252.13553,233.396463 250.005228,232.116448 L250.005228,232.116448 L202,203.272 L202,147.5 C202,145.085727 200.098763,143.115511 197.711836,143.004898 L197.5,143 Z" id="Oval-2" fill="#373C3F" fill-rule="nonzero"></path>
    </g>
</svg>