<?xml version="1.0" encoding="UTF-8"?>
<svg width="400px" height="400px" viewBox="0 0 400 400" version="1.1" xmlns="http://www.w3.org/2000/svg" xmlns:xlink="http://www.w3.org/1999/xlink">
    <title>Icon/Level1/Dark</title>
    <g id="Icon/Level1/Dark" stroke="none" stroke-width="1" fill="none" fill-rule="evenodd">
        <path d="M280.263292,181.430114 C297.501124,200.496439 307.998859,225.772281 307.998859,253.5 L307.994001,252.999276 L250.990195,252.99976 C250.760349,241.286107 246.50229,230.559817 239.544115,222.148985 L280.263292,181.430114 Z" id="Path" fill="#373C3F" fill-rule="nonzero" opacity="0.301339286"></path>
        <path d="M120.736229,181.428119 L162.006825,222.699678 C155.314844,231.02571 151.234664,241.540243 151.009805,252.99976 L93.0000013,252.99976 C93.1243448,225.7423 103.392706,200.881797 120.224179,181.998507 L120.736229,181.428119 Z" id="Path" fill="#373C3F" fill-rule="nonzero"></path>
        <path d="M193.999251,146.193276 L193.999251,204.48623 C185.619521,205.660301 177.905805,208.911433 171.395267,213.702465 L130.019335,172.325877 C147.362846,157.254436 169.583538,147.649407 193.999251,146.193276 Z" id="Path" fill="#373C3F" fill-rule="nonzero" opacity="0.301339286"></path>
        <path d="M206.999692,146.193355 C231.415647,147.649794 253.636395,157.255231 270.9798,172.327109 L230.024745,213.282008 C223.376725,208.534646 215.517138,205.374829 206.999692,204.356263 L206.999692,146.193355 Z" id="Path" fill="#373C3F" fill-rule="nonzero" opacity="0.301339286"></path>
    </g>
</svg>