<?xml version="1.0" encoding="UTF-8"?>
<svg width="400px" height="400px" viewBox="0 0 400 400" version="1.1" xmlns="http://www.w3.org/2000/svg" xmlns:xlink="http://www.w3.org/1999/xlink">
    <title>Icon/Nutrition</title>
    <g id="Icon/Nutrition" stroke="none" stroke-width="1" fill="none" fill-rule="evenodd">
        <path d="M183,124.278734 C199.516695,139.510734 206.956145,157.067771 205.318351,176.949846 C246.487362,146.171797 273,181.311258 273,221.5 C273,262.645214 239.390199,301.172111 202.5,284.747992 C165.731632,298.592872 141.230541,274.228363 133.962937,242.017875 C120.605988,232.871657 110.642816,225.861956 104.0679,220.983406 C98.3663653,216.7529 95.1130278,212.450366 94.1017949,207.756406 C93.0830582,203.027615 94.3362898,198.333354 97.5658584,192.72346 L97.9567151,192.055355 C99.088161,190.151473 100.437225,188.132371 102.347195,185.426824 L105.913002,180.415086 C106.630274,179.400917 107.23626,178.532851 107.832364,177.66368 C108.271765,177.022996 108.69104,176.402659 109.095334,175.794314 L109.598786,175.027529 C110.18444,174.107767 112.846283,169.884019 113.837823,168.424501 C119.007058,160.815544 123.966555,156.599174 130.4818,156.340777 C139.210919,155.994578 148.872213,159.338079 160.734813,167.017171 C171.268125,163.263035 184.140288,165.296384 198.451729,176.116048 C200.366945,159.755137 194.275817,144.559167 180.179369,130.53119 L183,124.278734 Z M117.139,174.348 L114.509999,178.483294 C113.960464,179.320063 113.388153,180.171186 112.780468,181.057242 L111.842321,182.413183 C111.438394,182.992149 111.011442,183.598389 110.536212,184.26859 L107.248855,188.887131 L106.333976,190.192965 C104.793111,192.411452 103.692134,194.107806 102.765742,195.716988 C100.207352,200.161018 99.3195595,203.486443 99.9672274,206.4928 C100.612774,209.489308 102.875844,212.545237 107.240568,215.862645 L108.361624,216.696556 C119.581484,224.975928 140.161378,239.149309 170.076328,259.198029 L176.779,263.684 L194.61,238.222 L183.419792,230.344187 L174.77043,242.250328 L168.298294,237.548046 L176.877792,225.738187 L169.169792,220.312187 L160.358215,232.441311 L153.886079,227.739029 L162.626792,215.707187 L155.099792,210.408187 L146.358215,222.441311 L139.886079,217.739029 L148.557792,205.803187 L140.368792,200.038187 L131.358215,212.441311 L124.886079,207.739029 L133.845792,195.406187 L133.563953,195.17356 C130.873317,192.942197 128.489121,190.750338 126.416719,188.596481 L116.358215,202.441311 L109.886079,197.739029 L121.140279,182.247467 C119.344772,179.660994 118.039968,177.130998 117.236168,174.654591 L117.139,174.348 Z M130.4818,161.57361 C127.770623,161.681136 123.688649,162.732022 122.228442,168.013113 C120.768234,173.294203 126.121382,181.113348 136.989581,190.218008 L137.787792,190.879187 L137.82904,190.784786 C141.731246,181.893237 147.375206,174.605647 154.398469,170.130701 L154.453281,170.167248 C143.171096,162.732022 137.952118,161.277335 130.4818,161.57361 Z M224.510709,114.514519 C233.337953,110.303682 244.060813,109.817584 255.415699,111.742469 L255.415699,111.742469 L257.197779,112.044568 L257.763543,113.761247 C259.899027,120.240879 256.061738,133.44026 248.764053,142.658146 C239.165094,154.782829 225.028423,159.628866 207.768058,154.010854 L207.768058,154.010854 L205.69657,153.336613 L205.69657,151.15816 C205.69657,132.268904 212.468939,120.258773 224.510709,114.514519 Z" id="Icon" fill="#373C3F" fill-rule="nonzero"></path>
    </g>
</svg>