<svg xmlns="http://www.w3.org/2000/svg" width="20" height="19.104" viewBox="0 0 20 19.104">
  <path id="star-half-alt-solid" d="M18.971,6.4,13.51,5.6,11.069.665a1.2,1.2,0,0,0-2.146,0L6.482,5.6,1.02,6.4A1.194,1.194,0,0,0,.358,8.435l3.951,3.843-.935,5.428a1.2,1.2,0,0,0,1.179,1.4,1.179,1.179,0,0,0,.555-.14L9.994,16.4l4.886,2.563a1.194,1.194,0,0,0,1.735-1.257l-.934-5.429,3.952-3.842A1.194,1.194,0,0,0,18.971,6.4ZM14.429,11l-.676.657.16.928.728,4.233-3.811-2-.835-.438V2.543L11.9,6.4l.417.844.933.136L17.513,8Z" transform="translate(0.004)"/>
</svg>
