<?xml version="1.0" encoding="UTF-8"?>
<svg width="720px" height="720px" viewBox="0 0 720 720" version="1.1" xmlns="http://www.w3.org/2000/svg" xmlns:xlink="http://www.w3.org/1999/xlink">
    <title>social/instagram</title>
    <g id="social/instagram" stroke="none" stroke-width="1" fill="none" fill-rule="evenodd">
        <path d="M360.111111,233.222222 C289.444444,233.222222 232.444444,290.222222 232.444444,360.888889 C232.444444,431.555556 289.444444,488.555556 360.111111,488.555556 C430.777778,488.555556 487.777778,431.555556 487.777778,360.888889 C487.777778,290.222222 430.777778,233.222222 360.111111,233.222222 Z M360.111111,443.888889 C314.444444,443.888889 277.111111,406.666667 277.111111,360.888889 C277.111111,315.111111 314.333333,277.888889 360.111111,277.888889 C405.888889,277.888889 443.111111,315.111111 443.111111,360.888889 C443.111111,406.666667 405.777778,443.888889 360.111111,443.888889 L360.111111,443.888889 Z M522.777778,228 C522.777778,244.555556 509.444444,257.777778 493,257.777778 C476.444444,257.777778 463.222222,244.444444 463.222222,228 C463.222222,211.555556 476.555556,198.222222 493,198.222222 C509.444444,198.222222 522.777778,211.555556 522.777778,228 Z M607.333333,258.222222 C605.444444,218.333333 596.333333,183 567.111111,153.888889 C538,124.777778 502.666667,115.666667 462.777778,113.666667 C421.666667,111.333333 298.444444,111.333333 257.333333,113.666667 C217.555556,115.555556 182.222222,124.666667 153,153.777778 C123.777778,182.888889 114.777778,218.222222 112.777778,258.111111 C110.444444,299.222222 110.444444,422.444444 112.777778,463.555556 C114.666667,503.444444 123.777778,538.777778 153,567.888889 C182.222222,597 217.444444,606.111111 257.333333,608.111111 C298.444444,610.444444 421.666667,610.444444 462.777778,608.111111 C502.666667,606.222222 538,597.111111 567.111111,567.888889 C596.222222,538.777778 605.333333,503.444444 607.333333,463.555556 C609.666667,422.444444 609.666667,299.333333 607.333333,258.222222 Z M554.222222,507.666667 C545.555556,529.444444 528.777778,546.222222 506.888889,555 C474.111111,568 396.333333,565 360.111111,565 C323.888889,565 246,567.888889 213.333333,555 C191.555556,546.333333 174.777778,529.555556 166,507.666667 C153,474.888889 156,397.111111 156,360.888889 C156,324.666667 153.111111,246.777778 166,214.111111 C174.666667,192.333333 191.444444,175.555556 213.333333,166.777778 C246.111111,153.777778 323.888889,156.777778 360.111111,156.777778 C396.333333,156.777778 474.222222,153.888889 506.888889,166.777778 C528.666667,175.444444 545.444444,192.222222 554.222222,214.111111 C567.222222,246.888889 564.222222,324.666667 564.222222,360.888889 C564.222222,397.111111 567.222222,475 554.222222,507.666667 Z" id="Logo" fill="#373C3F" fill-rule="nonzero"></path>
    </g>
</svg>