<?xml version="1.0" encoding="UTF-8"?>
<svg width="720px" height="720px" viewBox="0 0 720 720" version="1.1" xmlns="http://www.w3.org/2000/svg" xmlns:xlink="http://www.w3.org/1999/xlink">
    <title>social/linkedin</title>
    <g id="social/linkedin" stroke="none" stroke-width="1" fill="none" fill-rule="evenodd">
        <path d="M552,136 L167.9,136 C150.3,136 136,150.5 136,168.3 L136,551.7 C136,569.5 150.3,584 167.9,584 L552,584 C569.6,584 584,569.5 584,551.7 L584,168.3 C584,150.5 569.6,136 552,136 Z M271.4,520 L205,520 L205,306.2 L271.5,306.2 L271.5,520 L271.4,520 Z M238.2,277 C216.9,277 199.7,259.7 199.7,238.5 C199.7,217.3 216.9,200 238.2,200 C259.4,200 276.7,217.3 276.7,238.5 C276.7,259.8 259.5,277 238.2,277 L238.2,277 Z M520.3,520 L453.9,520 L453.9,416 C453.9,391.2 453.4,359.3 419.4,359.3 C384.8,359.3 379.5,386.3 379.5,414.2 L379.5,520 L313.1,520 L313.1,306.2 L376.8,306.2 L376.8,335.4 L377.7,335.4 C386.6,318.6 408.3,300.9 440.6,300.9 C507.8,300.9 520.3,345.2 520.3,402.8 L520.3,520 L520.3,520 Z" id="Shape" fill="#000000" fill-rule="nonzero"></path>
    </g>
</svg>