<?xml version="1.0" encoding="UTF-8"?>
<svg width="720px" height="720px" viewBox="0 0 720 720" version="1.1" xmlns="http://www.w3.org/2000/svg" xmlns:xlink="http://www.w3.org/1999/xlink">
    <title>social/medium</title>
    <g id="social/medium" stroke="none" stroke-width="1" fill="none" fill-rule="evenodd">
        <path d="M169.400826,242.88843 C170.020661,236.793388 167.644628,230.698347 163.099174,226.566116 L116.508264,170.367769 L116.508264,162 L261.342975,162 L373.326446,407.557851 L471.77686,162 L609.896694,162 L609.896694,170.367769 L570.020661,208.590909 C566.61157,211.173554 564.855372,215.512397 565.578512,219.747934 L565.578512,500.739669 C564.855372,504.975207 566.61157,509.31405 570.020661,511.896694 L608.966942,550.119835 L608.966942,558.487603 L412.995868,558.487603 L412.995868,550.119835 L453.38843,510.966942 C457.31405,507.041322 457.31405,505.801653 457.31405,499.809917 L457.31405,272.743802 L345.020661,557.764463 L329.834711,557.764463 L199.256198,272.743802 L199.256198,463.756198 C198.119835,471.81405 200.805785,479.871901 206.487603,485.657025 L258.966942,549.293388 L258.966942,557.661157 L110.206612,557.661157 L110.206612,549.396694 L162.68595,485.657025 C168.264463,479.871901 170.847107,471.710744 169.400826,463.756198 L169.400826,242.88843 Z" id="Logo" fill="#373C3F" fill-rule="nonzero"></path>
    </g>
</svg>