<?xml version="1.0" encoding="UTF-8"?>
<svg width="720px" height="720px" viewBox="0 0 720 720" version="1.1" xmlns="http://www.w3.org/2000/svg" xmlns:xlink="http://www.w3.org/1999/xlink">
    <title>social/pinterest</title>
    <g id="social/pinterest" stroke="none" stroke-width="1" fill="none" fill-rule="evenodd">
        <path d="M610,360 C610,498.104839 498.104839,610 360,610 C334.193548,610 309.395161,606.068548 286.008065,598.810484 C296.189516,582.177419 311.41129,554.959677 317.056452,533.28629 C320.080645,521.592742 332.580645,473.810484 332.580645,473.810484 C340.745968,489.334677 364.53629,502.540323 389.83871,502.540323 C465.241935,502.540323 519.576613,433.185484 519.576613,346.995968 C519.576613,264.435484 452.137097,202.641129 365.443548,202.641129 C257.580645,202.641129 200.221774,275.020161 200.221774,353.951613 C200.221774,390.645161 219.778226,436.310484 250.927419,450.826613 C255.665323,453.044355 258.185484,452.03629 259.294355,447.5 C260.100806,444.072581 264.334677,427.03629 266.25,419.173387 C266.854839,416.653226 266.552419,414.435484 264.53629,412.016129 C254.354839,399.415323 246.08871,376.431452 246.08871,354.959677 C246.08871,299.818548 287.822581,246.491935 358.991935,246.491935 C420.383065,246.491935 463.427419,288.326613 463.427419,348.205645 C463.427419,415.846774 429.254032,462.721774 384.798387,462.721774 C360.302419,462.721774 341.854839,442.459677 347.802419,417.560484 C354.858871,387.822581 368.467742,355.766129 368.467742,334.294355 C368.467742,315.141129 358.185484,299.112903 336.814516,299.112903 C311.71371,299.112903 291.552419,325.020161 291.552419,359.798387 C291.552419,381.975806 299.012097,396.895161 299.012097,396.895161 C299.012097,396.895161 274.314516,501.532258 269.778226,521.08871 C264.737903,542.66129 266.754032,573.104839 268.870968,592.862903 C175.927419,556.471774 110,465.947581 110,360 C110,221.895161 221.895161,110 360,110 C498.104839,110 610,221.895161 610,360 Z" id="Logo" fill="#373C3F" fill-rule="nonzero"></path>
    </g>
</svg>