<?xml version="1.0" encoding="UTF-8"?>
<svg width="720px" height="720px" viewBox="0 0 720 720" version="1.1" xmlns="http://www.w3.org/2000/svg" xmlns:xlink="http://www.w3.org/1999/xlink">
    <title>social/reddit</title>
    <g id="social/reddit" stroke="none" stroke-width="1" fill="none" fill-rule="evenodd">
        <path d="M305.5,409.5 C291.7,409.5 280.6,398.4 280.6,384.9 C280.6,371.1 291.7,360 305.5,360 C319.1,360 330.1,371.1 330.1,384.9 C330.1,398.5 319,409.5 305.5,409.5 Z M608,360 C608,497 497,608 360,608 C223,608 112,497 112,360 C112,223 223,112 360,112 C497,112 608,223 608,360 Z M475.7,318.8 C466.3,318.8 458,322.7 451.9,328.8 C429.5,313.3 399.3,303.3 365.8,302.2 L383.2,223.9 L438.6,236.4 C438.6,250 449.7,261 463.2,261 C477,261 488.1,249.7 488.1,236.1 C488.1,222.5 477,211.2 463.2,211.2 C453.5,211.2 445.2,217 441.1,225 L379.9,211.4 C376.9,210.6 373.8,212.8 373,215.8 L353.9,302.2 C320.7,303.6 290.8,313.5 268.4,329 C262.3,322.6 253.7,318.8 244.3,318.8 C209.4,318.8 198,365.7 229.9,381.6 C228.8,386.6 228.2,391.8 228.2,397.1 C228.2,449.7 287.4,492.3 360.2,492.3 C433.3,492.3 492.5,449.7 492.5,397.1 C492.5,391.8 491.9,386.3 490.6,381.3 C521.9,365.3 510.4,318.8 475.7,318.8 Z M406.8,435 C388.6,453.2 330.7,452.9 313.2,435 C311,432.8 307.1,432.8 304.9,435 C302.4,437.5 302.4,441.4 304.9,443.6 C327.7,466.4 392.2,466.4 415.1,443.6 C417.6,441.4 417.6,437.5 415.1,435 C412.9,432.8 409,432.8 406.8,435 Z M414.5,360 C400.9,360 389.9,371.1 389.9,384.9 C389.9,398.5 401,409.5 414.5,409.5 C428.3,409.5 439.4,398.4 439.4,384.9 C439.4,371.1 428.4,360 414.5,360 L414.5,360 Z" id="Shape" fill="#000000" fill-rule="nonzero"></path>
    </g>
</svg>