<?xml version="1.0" encoding="UTF-8"?>
<svg width="720px" height="720px" viewBox="0 0 720 720" version="1.1" xmlns="http://www.w3.org/2000/svg" xmlns:xlink="http://www.w3.org/1999/xlink">
    <title>social/twitter</title>
    <g id="social/twitter" stroke="none" stroke-width="1" fill="none" fill-rule="evenodd">
        <path d="M558.603516,258.285156 C558.920898,262.726563 558.920898,267.168945 558.920898,271.610352 C558.920898,407.079102 455.8125,563.170898 267.360352,563.170898 C209.301758,563.170898 155.368164,546.355469 110,517.168945 C118.249023,518.120117 126.179688,518.4375 134.746094,518.4375 C182.651367,518.4375 226.750977,502.257813 261.966797,474.65625 C216.916016,473.704102 179.162109,444.199219 166.154297,403.589844 C172.5,404.541016 178.844727,405.175781 185.507812,405.175781 C194.708008,405.175781 203.90918,403.90625 212.474609,401.686523 C165.520508,392.167969 130.303711,350.924805 130.303711,301.115234 L130.303711,299.84668 C143.945312,307.460938 159.80957,312.219727 176.623047,312.853516 C149.021484,294.452148 130.938477,263.043945 130.938477,227.510742 C130.938477,208.475586 136.013672,191.026367 144.897461,175.797852 C195.341797,237.980469 271.166992,278.588867 356.191406,283.03125 C354.605469,275.416992 353.65332,267.486328 353.65332,259.554688 C353.65332,203.082031 399.338867,157.080078 456.12793,157.080078 C485.632812,157.080078 512.282227,169.453125 531.000977,189.44043 C554.160156,184.999023 576.368164,176.432617 596.039062,164.694336 C588.423828,188.489258 572.244141,208.476562 550.988281,221.166016 C571.610352,218.946289 591.597656,213.234375 609.998047,205.303711 C596.041016,225.607422 578.59082,243.69043 558.603516,258.285156 Z" id="Logo" fill="#373C3F" fill-rule="nonzero"></path>
    </g>
</svg>