<?xml version="1.0" encoding="UTF-8"?>
<svg width="720px" height="720px" viewBox="0 0 720 720" version="1.1" xmlns="http://www.w3.org/2000/svg" xmlns:xlink="http://www.w3.org/1999/xlink">
    <title>social/youtube</title>
    <g id="social/youtube" stroke="none" stroke-width="1" fill="none" fill-rule="evenodd">
        <path d="M598.736314,239.820255 C593.005474,218.241788 576.120438,201.247263 554.681569,195.479927 C515.82208,185 360,185 360,185 C360,185 204.178832,185 165.318431,195.479927 C143.879562,201.248175 126.994526,218.241788 121.263686,239.820255 C110.851277,278.932482 110.851277,360.536496 110.851277,360.536496 C110.851277,360.536496 110.851277,442.140511 121.263686,481.252737 C126.994526,502.831204 143.879562,519.117701 165.318431,524.885036 C204.178832,535.364964 360,535.364964 360,535.364964 C360,535.364964 515.821168,535.364964 554.681569,524.885036 C576.120438,519.117701 593.005474,502.831204 598.736314,481.252737 C609.148723,442.140511 609.148723,360.536496 609.148723,360.536496 C609.148723,360.536496 609.148723,278.932482 598.736314,239.820255 Z M309.037409,434.626825 L309.037409,286.446168 L439.273723,360.538321 L309.037409,434.626825 Z" id="Logo" fill="#373C3F" fill-rule="nonzero"></path>
    </g>
</svg>